<mxfile host="app.diagrams.net" modified="2020-06-04T02:10:49.023Z" agent="5.0 (Macintosh; Intel Mac OS X 10_15_2) AppleWebKit/537.36 (KHTML, like Gecko) Chrome/81.0.4044.138 Safari/537.36" etag="Wc0kBdtIMoTxqQGjDagA" version="13.1.11" type="github">
  <diagram id="NYbHi9VWummK1k-Ksz4C" name="Page-1">
    <mxGraphModel dx="2687" dy="1762" grid="1" gridSize="10" guides="1" tooltips="1" connect="1" arrows="1" fold="1" page="1" pageScale="1" pageWidth="827" pageHeight="1169" math="0" shadow="0">
      <root>
        <mxCell id="0" />
        <mxCell id="1" parent="0" />
        <mxCell id="_Sg_oN3kfxwypQQNNQwl-181" value="broadcastRooms直播间" style="swimlane;fontStyle=0;childLayout=stackLayout;horizontal=1;startSize=26;fillColor=none;horizontalStack=0;resizeParent=1;resizeParentMax=0;resizeLast=0;collapsible=1;marginBottom=0;" vertex="1" parent="1">
          <mxGeometry x="-280" y="-80" width="430" height="286" as="geometry" />
        </mxCell>
        <mxCell id="_Sg_oN3kfxwypQQNNQwl-182" value="+ id: long                            直播间id" style="text;strokeColor=none;fillColor=none;align=left;verticalAlign=top;spacingLeft=4;spacingRight=4;overflow=hidden;rotatable=0;points=[[0,0.5],[1,0.5]];portConstraint=eastwest;" vertex="1" parent="_Sg_oN3kfxwypQQNNQwl-181">
          <mxGeometry y="26" width="430" height="26" as="geometry" />
        </mxCell>
        <mxCell id="_Sg_oN3kfxwypQQNNQwl-201" value="+ userId: long                   用户id" style="text;strokeColor=none;fillColor=none;align=left;verticalAlign=top;spacingLeft=4;spacingRight=4;overflow=hidden;rotatable=0;points=[[0,0.5],[1,0.5]];portConstraint=eastwest;" vertex="1" parent="_Sg_oN3kfxwypQQNNQwl-181">
          <mxGeometry y="52" width="430" height="26" as="geometry" />
        </mxCell>
        <mxCell id="_Sg_oN3kfxwypQQNNQwl-187" value="+ status: int                        0无效，1有效" style="text;strokeColor=none;fillColor=none;align=left;verticalAlign=top;spacingLeft=4;spacingRight=4;overflow=hidden;rotatable=0;points=[[0,0.5],[1,0.5]];portConstraint=eastwest;" vertex="1" parent="_Sg_oN3kfxwypQQNNQwl-181">
          <mxGeometry y="78" width="430" height="26" as="geometry" />
        </mxCell>
        <mxCell id="_Sg_oN3kfxwypQQNNQwl-189" value="+ groupId: long                   IM群组ID" style="text;strokeColor=none;fillColor=none;align=left;verticalAlign=top;spacingLeft=4;spacingRight=4;overflow=hidden;rotatable=0;points=[[0,0.5],[1,0.5]];portConstraint=eastwest;" vertex="1" parent="_Sg_oN3kfxwypQQNNQwl-181">
          <mxGeometry y="104" width="430" height="26" as="geometry" />
        </mxCell>
        <mxCell id="_Sg_oN3kfxwypQQNNQwl-216" value="+ streamName: string         推流名称" style="text;strokeColor=none;fillColor=none;align=left;verticalAlign=top;spacingLeft=4;spacingRight=4;overflow=hidden;rotatable=0;points=[[0,0.5],[1,0.5]];portConstraint=eastwest;" vertex="1" parent="_Sg_oN3kfxwypQQNNQwl-181">
          <mxGeometry y="130" width="430" height="26" as="geometry" />
        </mxCell>
        <mxCell id="_Sg_oN3kfxwypQQNNQwl-217" value="+ pushUrl: string                推流地址" style="text;strokeColor=none;fillColor=none;align=left;verticalAlign=top;spacingLeft=4;spacingRight=4;overflow=hidden;rotatable=0;points=[[0,0.5],[1,0.5]];portConstraint=eastwest;" vertex="1" parent="_Sg_oN3kfxwypQQNNQwl-181">
          <mxGeometry y="156" width="430" height="26" as="geometry" />
        </mxCell>
        <mxCell id="_Sg_oN3kfxwypQQNNQwl-218" value="+ pullUrl: string                  拉流地址" style="text;strokeColor=none;fillColor=none;align=left;verticalAlign=top;spacingLeft=4;spacingRight=4;overflow=hidden;rotatable=0;points=[[0,0.5],[1,0.5]];portConstraint=eastwest;" vertex="1" parent="_Sg_oN3kfxwypQQNNQwl-181">
          <mxGeometry y="182" width="430" height="26" as="geometry" />
        </mxCell>
        <mxCell id="_Sg_oN3kfxwypQQNNQwl-219" value="+ pushExpireTime:date     推流过期时间" style="text;strokeColor=none;fillColor=none;align=left;verticalAlign=top;spacingLeft=4;spacingRight=4;overflow=hidden;rotatable=0;points=[[0,0.5],[1,0.5]];portConstraint=eastwest;" vertex="1" parent="_Sg_oN3kfxwypQQNNQwl-181">
          <mxGeometry y="208" width="430" height="26" as="geometry" />
        </mxCell>
        <mxCell id="_Sg_oN3kfxwypQQNNQwl-205" value="+ pullExpireTime:date       拉流过期时间" style="text;strokeColor=none;fillColor=none;align=left;verticalAlign=top;spacingLeft=4;spacingRight=4;overflow=hidden;rotatable=0;points=[[0,0.5],[1,0.5]];portConstraint=eastwest;" vertex="1" parent="_Sg_oN3kfxwypQQNNQwl-181">
          <mxGeometry y="234" width="430" height="26" as="geometry" />
        </mxCell>
        <mxCell id="_Sg_oN3kfxwypQQNNQwl-192" value="+ serviceType: string         业务场景（多业务隔离）" style="text;strokeColor=none;fillColor=none;align=left;verticalAlign=top;spacingLeft=4;spacingRight=4;overflow=hidden;rotatable=0;points=[[0,0.5],[1,0.5]];portConstraint=eastwest;" vertex="1" parent="_Sg_oN3kfxwypQQNNQwl-181">
          <mxGeometry y="260" width="430" height="26" as="geometry" />
        </mxCell>
        <mxCell id="_Sg_oN3kfxwypQQNNQwl-207" value="n...1" style="html=1;verticalAlign=bottom;endArrow=open;dashed=1;endSize=8;entryX=0;entryY=0.5;entryDx=0;entryDy=0;exitX=1;exitY=0.5;exitDx=0;exitDy=0;" edge="1" parent="1" source="_Sg_oN3kfxwypQQNNQwl-163" target="_Sg_oN3kfxwypQQNNQwl-182">
          <mxGeometry y="-11" relative="1" as="geometry">
            <mxPoint x="-300" y="-10" as="sourcePoint" />
            <mxPoint x="-340" y="40" as="targetPoint" />
            <mxPoint as="offset" />
          </mxGeometry>
        </mxCell>
        <mxCell id="_Sg_oN3kfxwypQQNNQwl-162" value="prepareBroadcasts直播预告" style="swimlane;fontStyle=0;childLayout=stackLayout;horizontal=1;startSize=26;fillColor=none;horizontalStack=0;resizeParent=1;resizeParentMax=0;resizeLast=0;collapsible=1;marginBottom=0;" vertex="1" parent="1">
          <mxGeometry x="-830" y="-80" width="430" height="182" as="geometry" />
        </mxCell>
        <mxCell id="_Sg_oN3kfxwypQQNNQwl-163" value="+ id: long" style="text;strokeColor=none;fillColor=none;align=left;verticalAlign=top;spacingLeft=4;spacingRight=4;overflow=hidden;rotatable=0;points=[[0,0.5],[1,0.5]];portConstraint=eastwest;" vertex="1" parent="_Sg_oN3kfxwypQQNNQwl-162">
          <mxGeometry y="26" width="430" height="26" as="geometry" />
        </mxCell>
        <mxCell id="_Sg_oN3kfxwypQQNNQwl-169" value="+ broadcastId: long             直播间id" style="text;strokeColor=none;fillColor=none;align=left;verticalAlign=top;spacingLeft=4;spacingRight=4;overflow=hidden;rotatable=0;points=[[0,0.5],[1,0.5]];portConstraint=eastwest;" vertex="1" parent="_Sg_oN3kfxwypQQNNQwl-162">
          <mxGeometry y="52" width="430" height="26" as="geometry" />
        </mxCell>
        <mxCell id="_Sg_oN3kfxwypQQNNQwl-164" value="+ prepareStartTime: date   开始时间" style="text;strokeColor=none;fillColor=none;align=left;verticalAlign=top;spacingLeft=4;spacingRight=4;overflow=hidden;rotatable=0;points=[[0,0.5],[1,0.5]];portConstraint=eastwest;" vertex="1" parent="_Sg_oN3kfxwypQQNNQwl-162">
          <mxGeometry y="78" width="430" height="26" as="geometry" />
        </mxCell>
        <mxCell id="_Sg_oN3kfxwypQQNNQwl-166" value="+ title: string                       主题" style="text;strokeColor=none;fillColor=none;align=left;verticalAlign=top;spacingLeft=4;spacingRight=4;overflow=hidden;rotatable=0;points=[[0,0.5],[1,0.5]];portConstraint=eastwest;" vertex="1" parent="_Sg_oN3kfxwypQQNNQwl-162">
          <mxGeometry y="104" width="430" height="26" as="geometry" />
        </mxCell>
        <mxCell id="_Sg_oN3kfxwypQQNNQwl-167" value="+ userId: long                    用户id" style="text;strokeColor=none;fillColor=none;align=left;verticalAlign=top;spacingLeft=4;spacingRight=4;overflow=hidden;rotatable=0;points=[[0,0.5],[1,0.5]];portConstraint=eastwest;" vertex="1" parent="_Sg_oN3kfxwypQQNNQwl-162">
          <mxGeometry y="130" width="430" height="26" as="geometry" />
        </mxCell>
        <mxCell id="_Sg_oN3kfxwypQQNNQwl-168" value="+ status: int                        0取消，1有效，2逾期，3正常直播结束" style="text;strokeColor=none;fillColor=none;align=left;verticalAlign=top;spacingLeft=4;spacingRight=4;overflow=hidden;rotatable=0;points=[[0,0.5],[1,0.5]];portConstraint=eastwest;" vertex="1" parent="_Sg_oN3kfxwypQQNNQwl-162">
          <mxGeometry y="156" width="430" height="26" as="geometry" />
        </mxCell>
        <mxCell id="_Sg_oN3kfxwypQQNNQwl-1" value="broadcasts直播" style="swimlane;fontStyle=0;childLayout=stackLayout;horizontal=1;startSize=26;fillColor=none;horizontalStack=0;resizeParent=1;resizeParentMax=0;resizeLast=0;collapsible=1;marginBottom=0;" vertex="1" parent="1">
          <mxGeometry x="280" y="-80" width="430" height="364" as="geometry" />
        </mxCell>
        <mxCell id="_Sg_oN3kfxwypQQNNQwl-2" value="+ id: long" style="text;strokeColor=none;fillColor=none;align=left;verticalAlign=top;spacingLeft=4;spacingRight=4;overflow=hidden;rotatable=0;points=[[0,0.5],[1,0.5]];portConstraint=eastwest;" vertex="1" parent="_Sg_oN3kfxwypQQNNQwl-1">
          <mxGeometry y="26" width="430" height="26" as="geometry" />
        </mxCell>
        <mxCell id="_Sg_oN3kfxwypQQNNQwl-203" value="+ broadcastId: long                直播间id" style="text;strokeColor=none;fillColor=none;align=left;verticalAlign=top;spacingLeft=4;spacingRight=4;overflow=hidden;rotatable=0;points=[[0,0.5],[1,0.5]];portConstraint=eastwest;" vertex="1" parent="_Sg_oN3kfxwypQQNNQwl-1">
          <mxGeometry y="52" width="430" height="26" as="geometry" />
        </mxCell>
        <mxCell id="_Sg_oN3kfxwypQQNNQwl-224" value="+ prepareBroadcastId: long  直播预告id" style="text;strokeColor=none;fillColor=none;align=left;verticalAlign=top;spacingLeft=4;spacingRight=4;overflow=hidden;rotatable=0;points=[[0,0.5],[1,0.5]];portConstraint=eastwest;" vertex="1" parent="_Sg_oN3kfxwypQQNNQwl-1">
          <mxGeometry y="78" width="430" height="26" as="geometry" />
        </mxCell>
        <mxCell id="_Sg_oN3kfxwypQQNNQwl-5" value="+ title: string                          直播主题" style="text;strokeColor=none;fillColor=none;align=left;verticalAlign=top;spacingLeft=4;spacingRight=4;overflow=hidden;rotatable=0;points=[[0,0.5],[1,0.5]];portConstraint=eastwest;" vertex="1" parent="_Sg_oN3kfxwypQQNNQwl-1">
          <mxGeometry y="104" width="430" height="26" as="geometry" />
        </mxCell>
        <mxCell id="_Sg_oN3kfxwypQQNNQwl-42" value="+ userId: long                      用户id" style="text;strokeColor=none;fillColor=none;align=left;verticalAlign=top;spacingLeft=4;spacingRight=4;overflow=hidden;rotatable=0;points=[[0,0.5],[1,0.5]];portConstraint=eastwest;" vertex="1" parent="_Sg_oN3kfxwypQQNNQwl-1">
          <mxGeometry y="130" width="430" height="26" as="geometry" />
        </mxCell>
        <mxCell id="_Sg_oN3kfxwypQQNNQwl-215" value="+ status: int                        0无效，1有效" style="text;strokeColor=none;fillColor=none;align=left;verticalAlign=top;spacingLeft=4;spacingRight=4;overflow=hidden;rotatable=0;points=[[0,0.5],[1,0.5]];portConstraint=eastwest;" vertex="1" parent="_Sg_oN3kfxwypQQNNQwl-1">
          <mxGeometry y="156" width="430" height="26" as="geometry" />
        </mxCell>
        <mxCell id="_Sg_oN3kfxwypQQNNQwl-223" value="+ favorCount: int                 点赞数" style="text;strokeColor=none;fillColor=none;align=left;verticalAlign=top;spacingLeft=4;spacingRight=4;overflow=hidden;rotatable=0;points=[[0,0.5],[1,0.5]];portConstraint=eastwest;" vertex="1" parent="_Sg_oN3kfxwypQQNNQwl-1">
          <mxGeometry y="182" width="430" height="26" as="geometry" />
        </mxCell>
        <mxCell id="_Sg_oN3kfxwypQQNNQwl-6" value="+ maxCount: int                 直播间最大观众数" style="text;strokeColor=none;fillColor=none;align=left;verticalAlign=top;spacingLeft=4;spacingRight=4;overflow=hidden;rotatable=0;points=[[0,0.5],[1,0.5]];portConstraint=eastwest;" vertex="1" parent="_Sg_oN3kfxwypQQNNQwl-1">
          <mxGeometry y="208" width="430" height="26" as="geometry" />
        </mxCell>
        <mxCell id="_Sg_oN3kfxwypQQNNQwl-226" value="+ pushDuration: string       直播时长" style="text;strokeColor=none;fillColor=none;align=left;verticalAlign=top;spacingLeft=4;spacingRight=4;overflow=hidden;rotatable=0;points=[[0,0.5],[1,0.5]];portConstraint=eastwest;" vertex="1" parent="_Sg_oN3kfxwypQQNNQwl-1">
          <mxGeometry y="234" width="430" height="26" as="geometry" />
        </mxCell>
        <mxCell id="_Sg_oN3kfxwypQQNNQwl-227" value="+ pushUrl: string                推流地址" style="text;strokeColor=none;fillColor=none;align=left;verticalAlign=top;spacingLeft=4;spacingRight=4;overflow=hidden;rotatable=0;points=[[0,0.5],[1,0.5]];portConstraint=eastwest;" vertex="1" parent="_Sg_oN3kfxwypQQNNQwl-1">
          <mxGeometry y="260" width="430" height="26" as="geometry" />
        </mxCell>
        <mxCell id="_Sg_oN3kfxwypQQNNQwl-123" value="+ pullUrl: string                  拉流地址" style="text;strokeColor=none;fillColor=none;align=left;verticalAlign=top;spacingLeft=4;spacingRight=4;overflow=hidden;rotatable=0;points=[[0,0.5],[1,0.5]];portConstraint=eastwest;" vertex="1" parent="_Sg_oN3kfxwypQQNNQwl-1">
          <mxGeometry y="286" width="430" height="26" as="geometry" />
        </mxCell>
        <mxCell id="_Sg_oN3kfxwypQQNNQwl-4" value="+ endTime: date                直播结束时间" style="text;strokeColor=none;fillColor=none;align=left;verticalAlign=top;spacingLeft=4;spacingRight=4;overflow=hidden;rotatable=0;points=[[0,0.5],[1,0.5]];portConstraint=eastwest;" vertex="1" parent="_Sg_oN3kfxwypQQNNQwl-1">
          <mxGeometry y="312" width="430" height="26" as="geometry" />
        </mxCell>
        <mxCell id="_Sg_oN3kfxwypQQNNQwl-17" value="+ startTime: date               直播开始时间" style="text;strokeColor=none;fillColor=none;align=left;verticalAlign=top;spacingLeft=4;spacingRight=4;overflow=hidden;rotatable=0;points=[[0,0.5],[1,0.5]];portConstraint=eastwest;" vertex="1" parent="_Sg_oN3kfxwypQQNNQwl-1">
          <mxGeometry y="338" width="430" height="26" as="geometry" />
        </mxCell>
        <mxCell id="_Sg_oN3kfxwypQQNNQwl-208" value="1...n" style="html=1;verticalAlign=bottom;endArrow=open;dashed=1;endSize=8;entryX=1;entryY=0.5;entryDx=0;entryDy=0;exitX=0;exitY=0.5;exitDx=0;exitDy=0;" edge="1" parent="1" source="_Sg_oN3kfxwypQQNNQwl-2" target="_Sg_oN3kfxwypQQNNQwl-182">
          <mxGeometry x="-0.0769" y="11" relative="1" as="geometry">
            <mxPoint y="270" as="sourcePoint" />
            <mxPoint x="50" y="300" as="targetPoint" />
            <mxPoint as="offset" />
          </mxGeometry>
        </mxCell>
        <mxCell id="_Sg_oN3kfxwypQQNNQwl-22" value="broadcastVideos直播视频" style="swimlane;fontStyle=0;childLayout=stackLayout;horizontal=1;startSize=26;fillColor=none;horizontalStack=0;resizeParent=1;resizeParentMax=0;resizeLast=0;collapsible=1;marginBottom=0;" vertex="1" parent="1">
          <mxGeometry x="840" y="-80" width="360" height="312" as="geometry" />
        </mxCell>
        <mxCell id="_Sg_oN3kfxwypQQNNQwl-23" value="+ id: long" style="text;strokeColor=none;fillColor=none;align=left;verticalAlign=top;spacingLeft=4;spacingRight=4;overflow=hidden;rotatable=0;points=[[0,0.5],[1,0.5]];portConstraint=eastwest;" vertex="1" parent="_Sg_oN3kfxwypQQNNQwl-22">
          <mxGeometry y="26" width="360" height="26" as="geometry" />
        </mxCell>
        <mxCell id="_Sg_oN3kfxwypQQNNQwl-225" value="+ userId: long                      用户id" style="text;strokeColor=none;fillColor=none;align=left;verticalAlign=top;spacingLeft=4;spacingRight=4;overflow=hidden;rotatable=0;points=[[0,0.5],[1,0.5]];portConstraint=eastwest;" vertex="1" parent="_Sg_oN3kfxwypQQNNQwl-22">
          <mxGeometry y="52" width="360" height="26" as="geometry" />
        </mxCell>
        <mxCell id="_Sg_oN3kfxwypQQNNQwl-209" value="+ broadcastInfoId: long        直播明细id" style="text;strokeColor=none;fillColor=none;align=left;verticalAlign=top;spacingLeft=4;spacingRight=4;overflow=hidden;rotatable=0;points=[[0,0.5],[1,0.5]];portConstraint=eastwest;" vertex="1" parent="_Sg_oN3kfxwypQQNNQwl-22">
          <mxGeometry y="78" width="360" height="26" as="geometry" />
        </mxCell>
        <mxCell id="_Sg_oN3kfxwypQQNNQwl-109" value="+ fileId: long                          文件id" style="text;strokeColor=none;fillColor=none;align=left;verticalAlign=top;spacingLeft=4;spacingRight=4;overflow=hidden;rotatable=0;points=[[0,0.5],[1,0.5]];portConstraint=eastwest;" vertex="1" parent="_Sg_oN3kfxwypQQNNQwl-22">
          <mxGeometry y="104" width="360" height="26" as="geometry" />
        </mxCell>
        <mxCell id="_Sg_oN3kfxwypQQNNQwl-110" value="+ fileFormat: string               视频格式：flv，hls，mp4，aac" style="text;strokeColor=none;fillColor=none;align=left;verticalAlign=top;spacingLeft=4;spacingRight=4;overflow=hidden;rotatable=0;points=[[0,0.5],[1,0.5]];portConstraint=eastwest;" vertex="1" parent="_Sg_oN3kfxwypQQNNQwl-22">
          <mxGeometry y="130" width="360" height="26" as="geometry" />
        </mxCell>
        <mxCell id="_Sg_oN3kfxwypQQNNQwl-111" value="+ duration: int                       时长，单位秒           " style="text;strokeColor=none;fillColor=none;align=left;verticalAlign=top;spacingLeft=4;spacingRight=4;overflow=hidden;rotatable=0;points=[[0,0.5],[1,0.5]];portConstraint=eastwest;" vertex="1" parent="_Sg_oN3kfxwypQQNNQwl-22">
          <mxGeometry y="156" width="360" height="26" as="geometry" />
        </mxCell>
        <mxCell id="_Sg_oN3kfxwypQQNNQwl-112" value="+ fileSize: int                        大小，单位字节           " style="text;strokeColor=none;fillColor=none;align=left;verticalAlign=top;spacingLeft=4;spacingRight=4;overflow=hidden;rotatable=0;points=[[0,0.5],[1,0.5]];portConstraint=eastwest;" vertex="1" parent="_Sg_oN3kfxwypQQNNQwl-22">
          <mxGeometry y="182" width="360" height="26" as="geometry" />
        </mxCell>
        <mxCell id="_Sg_oN3kfxwypQQNNQwl-38" value="+ coverUrl: string                  封面图url" style="text;strokeColor=none;fillColor=none;align=left;verticalAlign=top;spacingLeft=4;spacingRight=4;overflow=hidden;rotatable=0;points=[[0,0.5],[1,0.5]];portConstraint=eastwest;" vertex="1" parent="_Sg_oN3kfxwypQQNNQwl-22">
          <mxGeometry y="208" width="360" height="26" as="geometry" />
        </mxCell>
        <mxCell id="_Sg_oN3kfxwypQQNNQwl-49" value="+ videoUrl: string                  视频url" style="text;strokeColor=none;fillColor=none;align=left;verticalAlign=top;spacingLeft=4;spacingRight=4;overflow=hidden;rotatable=0;points=[[0,0.5],[1,0.5]];portConstraint=eastwest;" vertex="1" parent="_Sg_oN3kfxwypQQNNQwl-22">
          <mxGeometry y="234" width="360" height="26" as="geometry" />
        </mxCell>
        <mxCell id="_Sg_oN3kfxwypQQNNQwl-228" value="+ status: int                           0无效，1有效" style="text;strokeColor=none;fillColor=none;align=left;verticalAlign=top;spacingLeft=4;spacingRight=4;overflow=hidden;rotatable=0;points=[[0,0.5],[1,0.5]];portConstraint=eastwest;" vertex="1" parent="_Sg_oN3kfxwypQQNNQwl-22">
          <mxGeometry y="260" width="360" height="26" as="geometry" />
        </mxCell>
        <mxCell id="_Sg_oN3kfxwypQQNNQwl-29" value="+ cnt: int                                播放次数" style="text;strokeColor=none;fillColor=none;align=left;verticalAlign=top;spacingLeft=4;spacingRight=4;overflow=hidden;rotatable=0;points=[[0,0.5],[1,0.5]];portConstraint=eastwest;" vertex="1" parent="_Sg_oN3kfxwypQQNNQwl-22">
          <mxGeometry y="286" width="360" height="26" as="geometry" />
        </mxCell>
        <mxCell id="_Sg_oN3kfxwypQQNNQwl-210" value="1...1" style="html=1;verticalAlign=bottom;endArrow=open;dashed=1;endSize=8;entryX=1;entryY=0.5;entryDx=0;entryDy=0;exitX=0;exitY=0.5;exitDx=0;exitDy=0;" edge="1" parent="1" source="_Sg_oN3kfxwypQQNNQwl-23" target="_Sg_oN3kfxwypQQNNQwl-2">
          <mxGeometry relative="1" as="geometry">
            <mxPoint x="720" y="-120" as="sourcePoint" />
            <mxPoint x="590" y="-120" as="targetPoint" />
          </mxGeometry>
        </mxCell>
        <mxCell id="_Sg_oN3kfxwypQQNNQwl-102" value="subscribePrepareBroadcasts直播预告关注" style="swimlane;fontStyle=0;childLayout=stackLayout;horizontal=1;startSize=26;fillColor=none;horizontalStack=0;resizeParent=1;resizeParentMax=0;resizeLast=0;collapsible=1;marginBottom=0;" vertex="1" parent="1">
          <mxGeometry x="-785" y="320" width="340" height="130" as="geometry" />
        </mxCell>
        <mxCell id="_Sg_oN3kfxwypQQNNQwl-103" value="+ id: long" style="text;strokeColor=none;fillColor=none;align=left;verticalAlign=top;spacingLeft=4;spacingRight=4;overflow=hidden;rotatable=0;points=[[0,0.5],[1,0.5]];portConstraint=eastwest;" vertex="1" parent="_Sg_oN3kfxwypQQNNQwl-102">
          <mxGeometry y="26" width="340" height="26" as="geometry" />
        </mxCell>
        <mxCell id="_Sg_oN3kfxwypQQNNQwl-104" value="+ prepareBroadcastId: long            直播预告id" style="text;strokeColor=none;fillColor=none;align=left;verticalAlign=top;spacingLeft=4;spacingRight=4;overflow=hidden;rotatable=0;points=[[0,0.5],[1,0.5]];portConstraint=eastwest;" vertex="1" parent="_Sg_oN3kfxwypQQNNQwl-102">
          <mxGeometry y="52" width="340" height="26" as="geometry" />
        </mxCell>
        <mxCell id="_Sg_oN3kfxwypQQNNQwl-105" value="+ userId: long                                 用户id" style="text;strokeColor=none;fillColor=none;align=left;verticalAlign=top;spacingLeft=4;spacingRight=4;overflow=hidden;rotatable=0;points=[[0,0.5],[1,0.5]];portConstraint=eastwest;" vertex="1" parent="_Sg_oN3kfxwypQQNNQwl-102">
          <mxGeometry y="78" width="340" height="26" as="geometry" />
        </mxCell>
        <mxCell id="_Sg_oN3kfxwypQQNNQwl-106" value="+ status: int                                   1关注，2取关" style="text;strokeColor=none;fillColor=none;align=left;verticalAlign=top;spacingLeft=4;spacingRight=4;overflow=hidden;rotatable=0;points=[[0,0.5],[1,0.5]];portConstraint=eastwest;" vertex="1" parent="_Sg_oN3kfxwypQQNNQwl-102">
          <mxGeometry y="104" width="340" height="26" as="geometry" />
        </mxCell>
        <mxCell id="_Sg_oN3kfxwypQQNNQwl-212" value="1&lt;br&gt;:&lt;br&gt;n" style="html=1;verticalAlign=bottom;endArrow=open;dashed=1;endSize=8;exitX=0.5;exitY=0;exitDx=0;exitDy=0;" edge="1" parent="1" source="_Sg_oN3kfxwypQQNNQwl-102" target="_Sg_oN3kfxwypQQNNQwl-168">
          <mxGeometry x="-0.2785" y="1" relative="1" as="geometry">
            <mxPoint x="-675" y="270" as="sourcePoint" />
            <mxPoint x="-640" y="190" as="targetPoint" />
            <mxPoint as="offset" />
          </mxGeometry>
        </mxCell>
        <mxCell id="_Sg_oN3kfxwypQQNNQwl-61" value="Giftlogs礼物记录" style="swimlane;fontStyle=0;childLayout=stackLayout;horizontal=1;startSize=26;fillColor=none;horizontalStack=0;resizeParent=1;resizeParentMax=0;resizeLast=0;collapsible=1;marginBottom=0;" vertex="1" parent="1">
          <mxGeometry x="-210" y="310" width="240" height="234" as="geometry" />
        </mxCell>
        <mxCell id="_Sg_oN3kfxwypQQNNQwl-62" value="+ id: long" style="text;strokeColor=none;fillColor=none;align=left;verticalAlign=top;spacingLeft=4;spacingRight=4;overflow=hidden;rotatable=0;points=[[0,0.5],[1,0.5]];portConstraint=eastwest;" vertex="1" parent="_Sg_oN3kfxwypQQNNQwl-61">
          <mxGeometry y="26" width="240" height="26" as="geometry" />
        </mxCell>
        <mxCell id="_Sg_oN3kfxwypQQNNQwl-63" value="+ giftId: long                          礼物id" style="text;strokeColor=none;fillColor=none;align=left;verticalAlign=top;spacingLeft=4;spacingRight=4;overflow=hidden;rotatable=0;points=[[0,0.5],[1,0.5]];portConstraint=eastwest;" vertex="1" parent="_Sg_oN3kfxwypQQNNQwl-61">
          <mxGeometry y="52" width="240" height="26" as="geometry" />
        </mxCell>
        <mxCell id="_Sg_oN3kfxwypQQNNQwl-229" value="+ giftType: string                   礼物Type" style="text;strokeColor=none;fillColor=none;align=left;verticalAlign=top;spacingLeft=4;spacingRight=4;overflow=hidden;rotatable=0;points=[[0,0.5],[1,0.5]];portConstraint=eastwest;" vertex="1" parent="_Sg_oN3kfxwypQQNNQwl-61">
          <mxGeometry y="78" width="240" height="26" as="geometry" />
        </mxCell>
        <mxCell id="_Sg_oN3kfxwypQQNNQwl-64" value="+ count: int                            礼物数量" style="text;strokeColor=none;fillColor=none;align=left;verticalAlign=top;spacingLeft=4;spacingRight=4;overflow=hidden;rotatable=0;points=[[0,0.5],[1,0.5]];portConstraint=eastwest;" vertex="1" parent="_Sg_oN3kfxwypQQNNQwl-61">
          <mxGeometry y="104" width="240" height="26" as="geometry" />
        </mxCell>
        <mxCell id="_Sg_oN3kfxwypQQNNQwl-68" value="+ anchorUserId: long             主播id" style="text;strokeColor=none;fillColor=none;align=left;verticalAlign=top;spacingLeft=4;spacingRight=4;overflow=hidden;rotatable=0;points=[[0,0.5],[1,0.5]];portConstraint=eastwest;" vertex="1" parent="_Sg_oN3kfxwypQQNNQwl-61">
          <mxGeometry y="130" width="240" height="26" as="geometry" />
        </mxCell>
        <mxCell id="_Sg_oN3kfxwypQQNNQwl-69" value="+ rewardUserId: long            打赏者userId" style="text;strokeColor=none;fillColor=none;align=left;verticalAlign=top;spacingLeft=4;spacingRight=4;overflow=hidden;rotatable=0;points=[[0,0.5],[1,0.5]];portConstraint=eastwest;" vertex="1" parent="_Sg_oN3kfxwypQQNNQwl-61">
          <mxGeometry y="156" width="240" height="26" as="geometry" />
        </mxCell>
        <mxCell id="_Sg_oN3kfxwypQQNNQwl-70" value="+ broadcastId：long              直播间id" style="text;strokeColor=none;fillColor=none;align=left;verticalAlign=top;spacingLeft=4;spacingRight=4;overflow=hidden;rotatable=0;points=[[0,0.5],[1,0.5]];portConstraint=eastwest;" vertex="1" parent="_Sg_oN3kfxwypQQNNQwl-61">
          <mxGeometry y="182" width="240" height="26" as="geometry" />
        </mxCell>
        <mxCell id="_Sg_oN3kfxwypQQNNQwl-157" value="+ broadcastInfoId：long        直播明细id" style="text;strokeColor=none;fillColor=none;align=left;verticalAlign=top;spacingLeft=4;spacingRight=4;overflow=hidden;rotatable=0;points=[[0,0.5],[1,0.5]];portConstraint=eastwest;" vertex="1" parent="_Sg_oN3kfxwypQQNNQwl-61">
          <mxGeometry y="208" width="240" height="26" as="geometry" />
        </mxCell>
      </root>
    </mxGraphModel>
  </diagram>
</mxfile>
